<svg width="24" height="24" viewBox="0 0 24 24" fill="none" xmlns="http://www.w3.org/2000/svg">
<g clip-path="url(#clip0_12832_49801)">
<circle cx="12" cy="12" r="12" fill="#259C72"/>
<g clip-path="url(#clip1_12832_49801)">
<path fill-rule="evenodd" clip-rule="evenodd" d="M12.9886 16.5715C13.429 16.5715 13.7039 17.0487 13.4829 17.4297C13.1762 17.9583 12.6113 18.2838 12.0001 18.2838C11.3889 18.2838 10.8239 17.9583 10.5172 17.4297C10.3073 17.0678 10.5448 16.619 10.9467 16.575L11.0115 16.5715H12.9886ZM12.0001 5.71436C14.4772 5.71436 16.4941 7.68455 16.5693 10.1434L16.5715 10.2858V13.1429C16.5715 13.7454 17.0377 14.239 17.6291 14.2826L17.7905 14.2898C18.4255 14.3579 18.4499 15.2788 17.8637 15.4125L17.7905 15.4247L17.7144 15.4286H6.28578L6.20968 15.4247C5.54925 15.3538 5.54925 14.3606 6.20968 14.2898L6.37108 14.2826C6.93286 14.2412 7.38171 13.7937 7.42519 13.2324L7.42864 13.1429V10.2858C7.42864 7.76105 9.47534 5.71436 12.0001 5.71436Z" fill="white" fill-opacity="0.88"/>
</g>
</g>
<defs>
<clipPath id="clip0_12832_49801">
<rect width="24" height="24" rx="12" fill="white"/>
</clipPath>
<clipPath id="clip1_12832_49801">
<rect width="13.7143" height="13.7143" fill="white" transform="translate(5.14282 5.14282)"/>
</clipPath>
</defs>
</svg>
