<svg width="24" height="24" viewBox="0 0 24 24" fill="none" xmlns="http://www.w3.org/2000/svg">
<g clip-path="url(#clip0_12832_49807)">
<circle cx="12" cy="12" r="12" fill="#DE360B"/>
<g clip-path="url(#clip1_12832_49807)">
<path fill-rule="evenodd" clip-rule="evenodd" d="M12.1429 6.28564C12.4585 6.28564 12.7143 6.54148 12.7143 6.85707C12.7143 7.15012 12.4937 7.39165 12.2095 7.42466L12.1429 7.4285H7.57146C7.27841 7.4285 7.03689 7.6491 7.00388 7.93329L7.00004 7.99993V15.9999C7.00004 16.293 7.22063 16.5345 7.50482 16.5675L7.57146 16.5714H12.1429C12.4585 16.5714 12.7143 16.8272 12.7143 17.1428C12.7143 17.4358 12.4937 17.6774 12.2095 17.7104L12.1429 17.7142H7.57146C6.6585 17.7142 5.91223 17.0005 5.86009 16.1007L5.85718 15.9999V7.99993C5.85718 7.08697 6.57085 6.3407 7.47074 6.28855L7.57146 6.28564H12.1429ZM15.3503 9.26262L15.4041 9.31016L17.6898 11.5959C17.6987 11.6047 17.7073 11.6139 17.7155 11.6234L17.6898 11.5959C17.7021 11.6081 17.7137 11.6208 17.7246 11.6339C17.7296 11.6399 17.7344 11.6459 17.7391 11.652C17.7427 11.6567 17.7462 11.6613 17.7496 11.666C17.7531 11.6709 17.7567 11.6761 17.7602 11.6813C17.7639 11.6868 17.7674 11.6922 17.7709 11.6977C17.7739 11.7027 17.777 11.7078 17.78 11.713C17.7831 11.7182 17.7861 11.7235 17.7889 11.7287C17.8117 11.771 17.8294 11.8166 17.841 11.8645C17.8423 11.87 17.8436 11.8755 17.8447 11.8809C17.8464 11.8885 17.8478 11.8962 17.8492 11.904C17.8497 11.9072 17.8502 11.9103 17.8506 11.9133C17.852 11.9222 17.8532 11.9313 17.8541 11.9404C17.8546 11.9454 17.8551 11.9504 17.8554 11.9553C17.8559 11.9607 17.8562 11.9662 17.8565 11.9717C17.8569 11.9798 17.8571 11.9879 17.8572 11.996C17.8572 11.9973 17.8572 11.9986 17.8572 11.9999L17.8571 12.0086C17.857 12.016 17.8567 12.0233 17.8564 12.0307L17.8572 11.9999C17.8572 12.0157 17.8565 12.0314 17.8553 12.0468C17.8546 12.0545 17.8539 12.0622 17.8529 12.0698C17.8523 12.0753 17.8515 12.0808 17.8507 12.0863C17.8498 12.0917 17.8489 12.0972 17.8479 12.1027C17.8414 12.1387 17.8316 12.1734 17.8187 12.2065C17.8156 12.2145 17.8123 12.2225 17.8088 12.2303C17.8072 12.2341 17.8055 12.2378 17.8038 12.2415C17.7957 12.2588 17.7867 12.2758 17.7768 12.2925C17.7731 12.2986 17.7693 12.3046 17.7655 12.3105C17.7628 12.3147 17.76 12.3189 17.7571 12.3231C17.7538 12.3279 17.7505 12.3326 17.7471 12.3372C17.744 12.3415 17.7407 12.3458 17.7373 12.3502L17.7349 12.3532C17.7212 12.3707 17.7064 12.3873 17.6907 12.4031L17.6898 12.404L15.4041 14.6897C15.1809 14.9129 14.8191 14.9129 14.596 14.6897C14.39 14.4837 14.3741 14.1596 14.5484 13.9354L14.596 13.8816L15.9057 12.5713L9.28575 12.5714C8.97016 12.5714 8.71432 12.3155 8.71432 11.9999C8.71432 11.7069 8.93492 11.4654 9.21911 11.4323L9.28575 11.4285L15.9057 11.4283L14.596 10.1183C14.39 9.91229 14.3741 9.58815 14.5484 9.36399L14.596 9.31016C14.802 9.10416 15.1261 9.08832 15.3503 9.26262Z" fill="white" fill-opacity="0.88"/>
</g>
</g>
<defs>
<clipPath id="clip0_12832_49807">
<rect width="24" height="24" rx="12" fill="white"/>
</clipPath>
<clipPath id="clip1_12832_49807">
<rect width="13.7143" height="13.7143" fill="white" transform="translate(5.14282 5.14282)"/>
</clipPath>
</defs>
</svg>
