<svg width="4427" height="532" viewBox="0 0 4427 532" fill="none" xmlns="http://www.w3.org/2000/svg">
<path d="M783.707 287.463C783.707 349.794 739.056 400.612 682.918 400.612C652.851 400.612 629.427 388.225 614.393 365.701V396.192H552.088V96.6035H614.419V209.647C629.453 187.097 652.877 174.736 682.945 174.736C739.083 174.736 783.734 225.131 783.734 287.463H783.707ZM722.699 287.463C722.699 257.845 698.825 233.971 668.758 233.971C638.69 233.971 614.393 257.395 614.393 287.463C614.393 317.53 638.267 340.954 668.758 340.954C699.249 340.954 722.699 317.53 722.699 287.463Z" fill="#6210CC"/>
<path d="M1020.2 179.154V396.19H957.865V367.446C944.605 388.673 924.278 400.61 899.081 400.61C843.392 400.61 809.778 363.026 809.778 301.594V179.154H872.11V293.627C872.11 322.371 888.917 340.925 914.988 340.925C941.058 340.925 957.865 322.371 957.865 293.627V179.154H1020.2Z" fill="#6210CC"/>
<path d="M1042.72 322.822H1102.41C1103.73 337.405 1119.21 347.145 1139.99 347.145C1158.54 347.145 1169.16 340.952 1169.16 330.788C1169.16 294.977 1047.17 326.818 1047.17 245.906C1047.17 205.675 1079.88 174.734 1133.37 174.734C1180.22 174.734 1222.23 199.058 1227.52 247.23H1164.76C1163.89 236.166 1151.95 226.452 1132.05 226.452C1117.92 226.452 1107.3 231.322 1107.3 241.486C1107.3 275.074 1229.74 239.713 1229.74 330.338C1229.74 370.119 1192.16 400.61 1143.11 400.61C1086.52 400.61 1047.19 371.866 1042.77 322.822H1042.72Z" fill="#6210CC"/>
<path d="M1315.9 179.154V396.19H1253.56V179.154H1315.9Z" fill="#6210CC"/>
<path d="M1561.65 273.327V396.217H1499.32V281.294C1499.32 253 1482.09 234.446 1456.44 234.446C1430.79 234.446 1413.56 253 1413.56 281.294V396.217H1351.23V179.154H1413.56V207.449C1427.27 186.671 1447.6 174.734 1472.35 174.734C1528.03 174.734 1561.65 211.869 1561.65 273.3V273.327Z" fill="#6210CC"/>
<path d="M1805.63 302.493H1644.28C1648.7 330.787 1670.35 348.918 1699.54 348.918C1723.87 348.918 1739.33 338.304 1742.87 323.27H1803.88C1796.81 370.118 1755.71 400.636 1701.32 400.636C1637.24 400.636 1587.27 350.691 1587.27 286.586C1587.27 222.481 1636.79 174.76 1699.99 174.76C1758.78 174.76 1806.98 220.734 1806.98 280.419C1806.98 285.289 1806.53 295.453 1805.65 302.52L1805.63 302.493ZM1741.97 262.712C1740.2 240.612 1720.32 225.128 1697.32 225.128C1674.32 225.128 1654.89 237.065 1647.38 262.712H1741.97Z" fill="#6210CC"/>
<path d="M1818.89 322.822H1878.55C1879.87 337.405 1895.35 347.145 1916.13 347.145C1934.68 347.145 1945.3 340.952 1945.3 330.788C1945.3 294.977 1823.31 326.818 1823.31 245.906C1823.31 205.675 1856.02 174.734 1909.51 174.734C1956.36 174.734 1998.37 199.058 2003.66 247.23H1940.9C1940.03 236.166 1928.09 226.452 1908.19 226.452C1894.03 226.452 1883.44 231.322 1883.44 241.486C1883.44 275.074 2005.88 239.713 2005.88 330.338C2005.88 370.119 1968.3 400.61 1919.25 400.61C1862.67 400.61 1823.33 371.866 1818.91 322.822H1818.89Z" fill="#6210CC"/>
<path d="M2013.37 322.822H2073.06C2074.38 337.405 2089.86 347.145 2110.64 347.145C2129.2 347.145 2139.81 340.952 2139.81 330.788C2139.81 294.977 2017.82 326.818 2017.82 245.906C2017.82 205.675 2050.53 174.734 2104.03 174.734C2150.87 174.734 2192.88 199.058 2198.17 247.23H2135.42C2134.54 236.166 2122.61 226.452 2102.7 226.452C2088.57 226.452 2077.95 231.322 2077.95 241.486C2077.95 275.074 2200.39 239.713 2200.39 330.338C2200.39 370.119 2162.81 400.61 2113.77 400.61C2057.18 400.61 2017.85 371.866 2013.43 322.822H2013.37Z" fill="#6210CC"/>
<path d="M2645.45 261.39V396.217H2582.69V275.974C2582.69 250.326 2568.11 234.419 2545.56 234.419C2524.78 234.419 2506.23 248.129 2506.23 275.974V396.217H2443.9V275.974C2443.9 250.326 2429.31 234.419 2406.31 234.419C2385.99 234.419 2367.86 247.68 2367.86 275.974V396.217H2305.52V179.154H2367.86V205.225C2384.21 181.351 2409.86 174.734 2429.74 174.734C2458.03 174.734 2477.91 184.025 2491.17 206.549C2503.98 187.995 2529.18 174.734 2556.6 174.734C2608.32 174.734 2645.45 208.772 2645.45 261.363V261.39Z" fill="#6210CC"/>
<path d="M2889.43 302.493H2728.08C2732.5 330.787 2754.15 348.918 2783.35 348.918C2807.67 348.918 2823.13 338.304 2826.68 323.27H2887.68C2880.62 370.118 2839.49 400.636 2785.12 400.636C2721.02 400.636 2671.07 350.691 2671.07 286.586C2671.07 222.481 2720.59 174.76 2783.8 174.76C2842.58 174.76 2890.78 220.734 2890.78 280.419C2890.78 285.289 2890.33 295.453 2889.46 302.52L2889.43 302.493ZM2825.78 262.712C2824 240.612 2804.12 225.128 2781.12 225.128C2758.12 225.128 2738.7 237.065 2731.18 262.712H2825.78Z" fill="#6210CC"/>
<path d="M2902.69 322.822H2962.35C2963.67 337.405 2979.16 347.145 2999.93 347.145C3018.49 347.145 3029.1 340.952 3029.1 330.788C3029.1 294.977 2907.11 326.818 2907.11 245.906C2907.11 205.675 2939.82 174.734 2993.32 174.734C3040.16 174.734 3082.17 199.058 3087.46 247.23H3024.71C3023.83 236.166 3011.9 226.452 2991.99 226.452C2977.83 226.452 2967.25 231.322 2967.25 241.486C2967.25 275.074 3089.69 239.713 3089.69 330.338C3089.69 370.119 3052.1 400.61 3003.06 400.61C2946.47 400.61 2907.14 371.866 2902.72 322.822H2902.69Z" fill="#6210CC"/>
<path d="M3097.18 322.822H3156.86C3158.18 337.405 3173.67 347.145 3194.44 347.145C3213 347.145 3223.61 340.952 3223.61 330.788C3223.61 294.977 3101.62 326.818 3101.62 245.906C3101.62 205.675 3134.34 174.734 3187.83 174.734C3234.68 174.734 3276.68 199.058 3281.97 247.23H3219.22C3218.35 236.166 3206.41 226.452 3186.5 226.452C3172.37 226.452 3161.76 231.322 3161.76 241.486C3161.76 275.074 3284.2 239.713 3284.2 330.338C3284.2 370.119 3246.61 400.61 3197.57 400.61C3140.98 400.61 3101.65 371.866 3097.23 322.822H3097.18Z" fill="#6210CC"/>
<path d="M3528.15 179.154V396.19H3465.82V365.249C3450.79 387.8 3427.36 400.61 3396.87 400.61C3340.73 400.61 3296.08 349.766 3296.08 287.461C3296.08 225.155 3340.73 174.734 3396.87 174.734C3427.36 174.734 3450.81 187.545 3465.82 210.095V179.154H3528.15ZM3465.82 287.461C3465.82 257.393 3441.94 233.969 3411.45 233.969C3380.96 233.969 3357.09 257.843 3357.09 287.461C3357.09 317.078 3381.41 340.952 3411.45 340.952C3441.49 340.952 3465.82 317.978 3465.82 287.461Z" fill="#6210CC"/>
<path d="M3785.84 178.705V386.9C3785.84 448.332 3736.32 485.466 3673.56 485.466C3633.33 485.466 3564.38 470.882 3560.41 404.58H3622.75C3624.52 424.034 3646.62 433.748 3671.37 433.748C3698.34 433.748 3723.54 416.067 3723.54 389.547V358.156C3708.5 380.257 3685.08 392.194 3654.59 392.194C3598.45 392.194 3553.8 343.122 3553.8 283.464C3553.8 223.806 3598.45 174.734 3654.59 174.734C3685.08 174.734 3708.53 186.671 3723.54 208.772V178.705H3785.87H3785.84ZM3723.51 283.464C3723.51 254.296 3699.64 231.746 3669.14 231.746C3638.65 231.746 3614.78 254.72 3614.78 283.464C3614.78 312.208 3639.08 334.732 3669.14 334.732C3699.21 334.732 3723.51 312.631 3723.51 283.464Z" fill="#6210CC"/>
<path d="M3883.08 179.154V396.19H3820.75V179.154H3883.08Z" fill="#6210CC"/>
<path d="M4128.84 273.327V396.217H4066.51V281.294C4066.51 253 4049.27 234.446 4023.63 234.446C3997.98 234.446 3980.75 253 3980.75 281.294V396.217H3918.42V179.154H3980.75V207.449C3994.46 186.671 4014.79 174.734 4039.53 174.734C4095.22 174.734 4128.84 211.869 4128.84 273.3V273.327Z" fill="#6210CC"/>
<path d="M4386.53 178.705V386.9C4386.53 448.332 4337.01 485.466 4274.25 485.466C4234.02 485.466 4165.07 470.882 4161.1 404.58H4223.43C4225.21 424.034 4247.31 433.748 4272.05 433.748C4299.02 433.748 4324.22 416.067 4324.22 389.547V358.156C4309.19 380.257 4285.76 392.194 4255.27 392.194C4199.14 392.194 4154.48 343.122 4154.48 283.464C4154.48 223.806 4199.14 174.734 4255.27 174.734C4285.76 174.734 4309.21 186.671 4324.22 208.772V178.705H4386.55H4386.53ZM4324.2 283.464C4324.2 254.296 4300.32 231.746 4269.83 231.746C4239.34 231.746 4215.47 254.72 4215.47 283.464C4215.47 312.208 4239.79 334.732 4269.83 334.732C4299.87 334.732 4324.2 312.631 4324.2 283.464Z" fill="#6210CC"/>
<path d="M1322.51 123.309C1322.51 144.086 1305.28 161.317 1284.5 161.317C1263.73 161.317 1246.5 144.086 1246.5 123.309C1246.5 102.532 1263.73 85.7246 1284.5 85.7246C1305.28 85.7246 1322.51 102.955 1322.51 123.309Z" fill="#6210CC"/>
<path d="M3889.7 123.309C3889.7 144.086 3872.47 161.317 3851.69 161.317C3830.92 161.317 3813.68 144.086 3813.68 123.309C3813.68 102.532 3830.92 85.7246 3851.69 85.7246C3872.47 85.7246 3889.7 102.955 3889.7 123.309Z" fill="#6210CC"/>
<path d="M157.851 330.773L50.9473 292.53C38.4245 288.05 37.4943 270.697 49.4663 264.904L420.27 85.4824L377.029 423.892C375.698 434.314 364.342 440.173 355.077 435.218L187.27 345.482L352.77 164.232L157.851 330.773Z" fill="#6210CC"/>
<path d="M172.271 465.485V375.484L262.271 425.484L172.271 465.485Z" fill="#6210CC"/>
</svg>
