<svg width="22" height="23" viewBox="0 0 22 23" fill="none" xmlns="http://www.w3.org/2000/svg">
<path fill-rule="evenodd" clip-rule="evenodd" d="M11 0.5C12.1046 0.5 13 1.39543 13 2.5V2.59C13.0026 3.24764 13.3955 3.84093 14 4.1C14.6171 4.37235 15.3378 4.24167 15.82 3.77L15.88 3.71C16.2551 3.33445 16.7642 3.12343 17.295 3.12343C17.8258 3.12343 18.3349 3.33445 18.71 3.71C19.0856 4.08514 19.2966 4.59418 19.2966 5.125C19.2966 5.65582 19.0856 6.16486 18.71 6.54L18.65 6.6C18.1783 7.08219 18.0477 7.80291 18.32 8.42V8.5C18.5791 9.10447 19.1724 9.49738 19.83 9.5H20C21.1046 9.5 22 10.3954 22 11.5C22 12.6046 21.1046 13.5 20 13.5H19.91C19.2524 13.5026 18.6591 13.8955 18.4 14.5C18.1277 15.1171 18.2583 15.8378 18.73 16.32L18.79 16.38C19.1656 16.7551 19.3766 17.2642 19.3766 17.795C19.3766 18.3258 19.1656 18.8349 18.79 19.21C18.4149 19.5856 17.9058 19.7966 17.375 19.7966C16.8442 19.7966 16.3351 19.5856 15.96 19.21L15.9 19.15C15.4178 18.6783 14.6971 18.5477 14.08 18.82C13.4755 19.0791 13.0826 19.6724 13.08 20.33V20.5C13.08 21.6046 12.1846 22.5 11.08 22.5C9.97543 22.5 9.08 21.6046 9.08 20.5V20.41C9.06416 19.7327 8.63587 19.1339 8 18.9C7.38291 18.6277 6.66219 18.7583 6.18 19.23L6.12 19.29C5.74486 19.6656 5.23582 19.8766 4.705 19.8766C4.17418 19.8766 3.66514 19.6656 3.29 19.29C2.91445 18.9149 2.70343 18.4058 2.70343 17.875C2.70343 17.3442 2.91445 16.8351 3.29 16.46L3.35 16.4C3.82167 15.9178 3.95235 15.1971 3.68 14.58C3.42093 13.9755 2.82764 13.5826 2.17 13.58H2C0.89543 13.58 0 12.6846 0 11.58C0 10.4754 0.89543 9.58 2 9.58H2.09C2.76733 9.56416 3.36613 9.13587 3.6 8.5C3.87235 7.88291 3.74167 7.16219 3.27 6.68L3.21 6.62C2.83445 6.24486 2.62343 5.73582 2.62343 5.205C2.62343 4.67418 2.83445 4.16514 3.21 3.79C3.58514 3.41445 4.09418 3.20343 4.625 3.20343C5.15582 3.20343 5.66486 3.41445 6.04 3.79L6.1 3.85C6.58219 4.32167 7.30291 4.45235 7.92 4.18H8C8.60447 3.92093 8.99738 3.32764 9 2.67V2.5C9 1.39543 9.89543 0.5 11 0.5ZM11 8.5C9.34315 8.5 8 9.84315 8 11.5C8 13.1569 9.34315 14.5 11 14.5C12.6569 14.5 14 13.1569 14 11.5C14 9.84315 12.6569 8.5 11 8.5Z" fill="black" fill-opacity="0.38"/>
</svg>
